<svg width="510" height="480" viewBox="0 0 510 480" fill="none" xmlns="http://www.w3.org/2000/svg">
<g clip-path="url(#clip0_100_7)">
<path d="M370.263 272.381V404.977L392.453 441.123L394.142 443.873H481.699L483.468 272.381H370.263Z" fill="#E6E6E6"/>
<path opacity="0.1" d="M370.263 272.381V404.977L392.453 441.123L393.815 272.381H370.263Z" fill="black"/>
<path d="M158.887 268.844V401.441L136.697 437.588L135.008 440.336H47.4512L45.6821 268.844H158.887Z" fill="#E6E6E6"/>
<path opacity="0.1" d="M158.887 268.844V401.441L136.697 437.588L135.335 268.844H158.887Z" fill="black"/>
<path d="M510 266.193V274.148H34.1846V262.656L78.4052 239.673H471.086L510 266.193Z" fill="#E6E6E6"/>
<path opacity="0.1" d="M510 266.193V274.148H34.1846V262.656L510 266.193Z" fill="black"/>
<path d="M102.285 305.972H81.0585L72.2144 299.784H112.013L102.285 305.972Z" fill="#3F3D56"/>
<path d="M102.285 331.607H81.0585L72.2144 325.419H112.013L102.285 331.607Z" fill="#3F3D56"/>
<path d="M102.285 367.851H81.0585L72.2144 361.662H112.013L102.285 367.851Z" fill="#3F3D56"/>
<path d="M102.285 404.094H81.0585L72.2144 397.906H112.013L102.285 404.094Z" fill="#3F3D56"/>
<path d="M426.865 309.507H448.091L456.935 303.32H417.136L426.865 309.507Z" fill="#3F3D56"/>
<path d="M426.865 335.143H448.091L456.935 328.955H417.136L426.865 335.143Z" fill="#3F3D56"/>
<path d="M426.865 371.386H448.091L456.935 365.199H417.136L426.865 371.386Z" fill="#3F3D56"/>
<path d="M426.865 407.629H448.091L456.935 401.441H417.136L426.865 407.629Z" fill="#3F3D56"/>
<path d="M441.319 86.3379H262.626C261.739 86.3378 260.86 86.5124 260.04 86.8518C259.22 87.1912 258.475 87.6888 257.847 88.316C257.22 88.9433 256.722 89.6879 256.382 90.5075C256.043 91.3271 255.868 92.2055 255.868 93.0925V213.406C255.868 214.293 256.043 215.171 256.382 215.991C256.722 216.81 257.22 217.555 257.847 218.182C258.475 218.81 259.22 219.307 260.04 219.646C260.86 219.986 261.739 220.161 262.626 220.16H330.46L327.918 236.378C327.918 236.378 313.395 244.09 323.607 244.317C333.818 244.543 381.927 244.317 381.927 244.317C381.927 244.317 391.232 244.317 376.481 236.151L374.091 220.16H441.319C442.207 220.161 443.086 219.986 443.906 219.646C444.726 219.307 445.471 218.81 446.098 218.182C446.726 217.555 447.224 216.81 447.563 215.991C447.903 215.171 448.078 214.293 448.077 213.406V93.0925C448.078 92.2055 447.903 91.3271 447.563 90.5075C447.224 89.6879 446.726 88.9433 446.098 88.316C445.471 87.6888 444.726 87.1912 443.906 86.8518C443.086 86.5124 442.207 86.3378 441.319 86.3379Z" fill="#3F3D56"/>
<path d="M441.61 93.4827H262.336V193.736H441.61V93.4827Z" fill="#F2F2F2"/>
<path d="M351.973 91.4413C352.599 91.4413 353.107 90.9336 353.107 90.3072C353.107 89.6809 352.599 89.1732 351.973 89.1732C351.346 89.1732 350.838 89.6809 350.838 90.3072C350.838 90.9336 351.346 91.4413 351.973 91.4413Z" fill="#F2F2F2"/>
<path d="M351.973 215.284C354.354 215.284 356.284 213.354 356.284 210.974C356.284 208.594 354.354 206.665 351.973 206.665C349.592 206.665 347.661 208.594 347.661 210.974C347.661 213.354 349.592 215.284 351.973 215.284Z" fill="#F2F2F2"/>
<path d="M345.254 256.565V258.833H223.166V257.018L223.334 256.565L226.343 248.399H342.758L345.254 256.565Z" fill="#3F3D56"/>
<path d="M392.237 254.344C392.015 255.295 391.175 256.297 389.278 257.245C382.47 260.647 368.628 256.338 368.628 256.338C368.628 256.338 357.962 254.523 357.962 249.76C358.261 249.555 358.574 249.37 358.897 249.205C361.759 247.691 371.249 243.956 388.076 249.363C389.316 249.752 390.423 250.477 391.275 251.458C391.652 251.829 391.936 252.284 392.103 252.785C392.271 253.287 392.317 253.821 392.237 254.344Z" fill="#3F3D56"/>
<path opacity="0.1" d="M392.237 254.344C383.905 257.536 376.477 257.774 368.855 252.482C365.972 250.352 362.482 249.203 358.897 249.205C361.759 247.691 371.249 243.956 388.076 249.363C389.316 249.752 390.423 250.477 391.275 251.458C391.652 251.829 391.936 252.284 392.104 252.785C392.271 253.287 392.317 253.821 392.237 254.344Z" fill="black"/>
<path d="M381.789 252.482C383.419 252.482 384.74 252.076 384.74 251.575C384.74 251.074 383.419 250.667 381.789 250.667C380.16 250.667 378.839 251.074 378.839 251.575C378.839 252.076 380.16 252.482 381.789 252.482Z" fill="#F2F2F2"/>
<path opacity="0.1" d="M345.254 256.565V258.833H223.166V257.018L223.334 256.565H345.254Z" fill="black"/>
<path d="M67.8827 0.000118701C66.6436 -0.101563 65.4029 0.175467 64.3249 0.7945C63.2665 1.519 62.5993 2.78824 61.9184 3.96935C59.3148 8.53912 55.79 12.5186 51.5674 15.6558C48.4918 17.9079 44.5815 20.7159 45.1078 24.8681C45.3854 26.2393 45.8922 27.554 46.6069 28.7568C49.4442 34.4816 57.1869 38.9056 56.4253 45.438C59.2442 40.7211 55.4737 38.3887 58.2926 33.6718C59.6351 31.4255 61.9672 28.8898 63.994 30.3005C64.6727 30.7729 65.1183 31.62 65.8249 32.0345C67.511 33.0234 69.3048 31.1328 70.7973 29.7937C75.9439 25.1759 83.2628 26.3856 89.6672 27.8244C92.6907 28.5037 96.0117 29.3948 97.799 32.2832C100.149 36.0807 95.5664 40.1821 94.4085 44.4756C94.314 44.8414 94.3095 45.2247 94.3955 45.5926C94.4815 45.9606 94.6553 46.3022 94.9022 46.5884C95.1491 46.8745 95.4616 47.0966 95.8131 47.2357C96.1646 47.3749 96.5445 47.4268 96.9205 47.3871C98.8422 47.1977 101.119 47.0424 101.232 46.1995C103.65 46.2855 106.613 46.0118 107.648 43.4955C107.965 42.4999 108.132 41.463 108.145 40.4184C108.525 36.1915 110.32 32.3353 111.509 28.3124C112.698 24.2894 113.215 19.5747 111.209 16.0079C110.493 14.8212 109.607 13.7453 108.58 12.8144C97.1927 1.80016 82.2213 -0.0162305 67.8827 0.000118701Z" fill="#2F2E41"/>
<path d="M58.9018 53.6889C58.9018 53.6889 61.3782 74.316 52.2978 75.9662C43.2174 77.6163 60.5527 105.669 60.5527 105.669L101.827 110.62L91.9214 77.6163C91.9214 77.6163 85.3175 75.1411 89.445 58.6394C93.5724 42.1377 58.9018 53.6889 58.9018 53.6889Z" fill="#FFB8B8"/>
<path d="M33.7243 408.063L37.0265 453.443H54.3612L49.4089 408.063H33.7243Z" fill="#FFB8B8"/>
<path d="M160.85 322.254L163.326 360.208L182.313 351.957L174.883 320.604L160.85 322.254Z" fill="#FFB8B8"/>
<path d="M21.3419 234.795C21.3419 234.795 22.1674 282.65 27.1204 298.327C32.0734 314.003 31.2478 314.828 30.4223 317.304C29.5969 319.779 28.7714 318.129 28.7714 322.254C28.7714 326.38 27.1204 391.561 28.7714 397.337C30.4223 403.113 23.8184 413.014 28.7714 413.839C33.7243 414.664 56.8381 413.839 57.6636 408.888C58.489 403.938 51.0596 402.287 54.3616 398.987C57.6636 395.687 62.6165 328.03 62.6165 328.03L74.1734 281L95.6362 256.247H141.038L155.072 310.703C155.072 310.703 149.293 326.38 153.421 326.38C157.548 326.38 182.313 331.33 182.313 313.178C182.313 295.026 174.058 241.396 172.407 239.746C170.756 238.095 173.232 232.32 170.756 229.845C168.279 227.369 139.387 210.043 128.656 206.742C117.924 203.442 102.87 199.514 102.87 199.514L21.3419 234.795Z" fill="#2F2E41"/>
<path d="M182.313 345.357C182.313 345.357 169.93 341.231 164.152 353.607C158.373 365.984 160.85 369.284 160.85 369.284C160.85 369.284 179.836 375.885 183.138 372.584C184.575 371.149 189.137 370.65 193.832 370.544C200.984 370.384 202.887 360.271 196.132 357.916C195.931 357.846 195.727 357.785 195.521 357.733C188.917 356.083 182.313 345.357 182.313 345.357Z" fill="#2F2E41"/>
<path d="M77.4753 67.3028C91.1525 67.3028 102.24 56.2207 102.24 42.5502C102.24 28.8798 91.1525 17.7977 77.4753 17.7977C63.7981 17.7977 52.7106 28.8798 52.7106 42.5502C52.7106 56.2207 63.7981 67.3028 77.4753 67.3028Z" fill="#FFB8B8"/>
<path d="M45.2811 86.2797C45.2811 86.2797 85.7302 94.5306 95.6361 81.3292C105.542 68.1279 109.669 118.458 109.669 118.458L114.622 171.264L107.193 200.142C107.193 200.142 68.3949 231.495 56.0125 233.97C43.6302 236.445 24.6439 238.095 24.6439 238.095C24.6439 238.095 30.4223 146.511 30.4223 144.861C30.4223 143.211 45.2811 86.2797 45.2811 86.2797Z" fill="#9C77E9"/>
<path d="M57.5827 70.8055C57.5827 70.8055 48.5831 65.6526 46.1066 70.6031C43.6302 75.5536 20.5164 87.9299 18.0399 87.9299C15.5635 87.9299 22.9929 156.412 19.6909 164.663C16.389 172.914 0.704628 233.145 9.78503 238.095C18.8654 243.046 12.2615 233.145 21.3419 245.521C30.4223 257.897 74.9988 257.897 77.4753 252.947C79.9518 247.996 57.6635 210.868 61.791 176.214C65.9184 141.56 72.5224 93.7055 66.7439 87.1048C60.9655 80.5041 57.5827 70.8055 57.5827 70.8055Z" fill="#2F2E41"/>
<path d="M87.3813 76.3787L88.5311 72.4236C88.5311 72.4236 122.877 83.8045 124.528 91.2303C126.179 98.656 125.354 150.636 119.575 154.762C113.797 158.887 105.542 165.488 111.321 175.389C117.099 185.29 123.703 196.016 128.656 196.841C133.609 197.666 142.689 203.442 140.213 209.217C137.736 214.993 108.019 204.267 108.019 204.267C108.019 204.267 88.2067 189.415 89.0322 166.313C89.8577 143.211 87.3813 76.3787 87.3813 76.3787Z" fill="#2F2E41"/>
<path d="M116.273 173.739L96.4616 210.868C96.4616 210.868 67.5694 240.571 84.0793 243.871C100.589 247.171 109.67 216.643 109.67 216.643L131.132 186.115L116.273 173.739Z" fill="#FFB8B8"/>
<path d="M69.0891 6.47654C68.0909 6.40262 67.0911 6.59645 66.1929 7.03801C65.3808 7.63081 64.7115 8.39747 64.2339 9.28197C62.0321 12.5924 59.1619 15.4059 55.8078 17.5419C53.3041 19.1336 50.121 21.1183 50.5494 24.0531C50.7819 25.037 51.1957 25.9691 51.7698 26.8016C54.0874 30.8887 55.0101 35.6192 54.3981 40.2771L61.2824 30.2755C62.3753 28.6878 64.2737 26.8956 65.9236 27.8927C66.4761 28.2265 66.8388 28.8253 67.414 29.1182C68.7866 29.8172 70.2468 28.481 71.4617 27.5344C75.6513 24.2706 81.6092 25.1257 86.8227 26.1426C89.2839 26.6227 91.9873 27.2526 93.4423 29.294C95.8602 32.6865 93.3354 37.5884 94.7466 41.5075C95.1416 41.2311 95.4771 40.8782 95.7331 40.4698C95.9891 40.0614 96.1605 39.6058 96.2371 39.1299C98.2053 39.1908 100.617 38.9973 101.46 37.2188C101.717 36.5218 101.853 35.7864 101.864 35.0439C102.174 32.0564 103.635 29.3309 104.603 26.4875C105.571 23.644 105.992 20.3117 104.358 17.7908C103.761 16.9366 103.04 16.1759 102.218 15.5336C92.9487 7.74879 80.7614 6.46499 69.0891 6.47654Z" fill="#2F2E41"/>
<path d="M116.273 87.9299L123.965 89.9704C123.965 89.9704 141.864 135.785 137.736 167.138C133.609 198.491 131.132 191.891 131.132 191.891C131.132 191.891 124.528 177.039 109.669 180.339L116.273 87.9299Z" fill="#2F2E41"/>
<path d="M34.868 447.445C32.8773 450.149 33.2764 454.014 31.5131 456.871C29.9846 459.348 27.1041 460.646 25.1922 462.841C24.5822 463.57 24.0384 464.352 23.5671 465.177C21.7937 468.147 20.3521 471.952 22.0988 474.937C23.5039 477.338 26.4573 478.277 29.1659 478.917C32.5894 479.725 36.1465 480.372 39.6096 479.754C43.0726 479.136 46.4571 477.017 47.6919 473.725C47.9346 472.897 48.2231 472.083 48.5561 471.287C50.4331 467.594 56.3206 467.554 58.2415 463.883C59.5859 461.314 58.3501 458.209 57.1148 455.586L53.3421 447.575C52.09 444.916 47.0145 446.445 44.3686 445.808C40.9177 444.977 37.3505 444.062 34.868 447.445Z" fill="#2F2E41"/>
<path d="M7.30856 190.24L41.9792 243.871C41.9792 243.871 63.442 271.099 70.0459 258.723C76.6498 246.346 46.9321 225.719 46.9321 225.719L24.6439 184.465L7.30856 190.24Z" fill="#FFB8B8"/>
<path d="M24.6439 89.58L18.0399 87.9299C18.0399 87.9299 4.83208 92.0553 1.53012 109.382C-1.77185 126.709 0.70462 196.016 4.83208 196.841C8.95953 197.666 25.2175 184.773 27.8199 187.507C30.4223 190.24 22.1674 176.214 24.6438 168.788C27.1203 161.362 24.6439 89.58 24.6439 89.58Z" fill="#2F2E41"/>
<path d="M335.005 126.409H313.669V131.543H335.005V126.409Z" fill="#9C77E9"/>
<path d="M408.889 126.409H401.382V131.543H408.889V126.409Z" fill="#9C77E9"/>
<path d="M423.903 126.409H416.396V131.543H423.903V126.409Z" fill="#9C77E9"/>
<path d="M393.48 126.409H342.512V131.543H393.48V126.409Z" fill="#9C77E9"/>
<path d="M308.137 159.582H286.802V164.716H308.137V159.582Z" fill="#9C77E9"/>
<path d="M382.022 159.582H374.515V164.716H382.022V159.582Z" fill="#9C77E9"/>
<path d="M397.036 159.582H389.529V164.716H397.036V159.582Z" fill="#9C77E9"/>
<path d="M366.613 159.582H315.644V164.716H366.613V159.582Z" fill="#9C77E9"/>
<path d="M396.246 137.862H374.91V142.996H396.246V137.862Z" fill="#9C77E9"/>
<path d="M425.089 137.862H403.753V142.996H425.089V137.862Z" fill="#9C77E9"/>
<path d="M294.309 137.862H286.802V142.996H294.309V137.862Z" fill="#9C77E9"/>
<path d="M309.323 137.862H301.816V142.996H309.323V137.862Z" fill="#9C77E9"/>
<path d="M367.798 137.862H316.83V142.996H367.798V137.862Z" fill="#9C77E9"/>
<path d="M351.994 148.919H330.658V154.053H351.994V148.919Z" fill="#9C77E9"/>
<path d="M323.151 148.919H301.816V154.053H323.151V148.919Z" fill="#9C77E9"/>
<path d="M294.309 148.919H286.802V154.053H294.309V148.919Z" fill="#9C77E9"/>
<path d="M425.089 148.919H417.582V154.053H425.089V148.919Z" fill="#9C77E9"/>
<path d="M410.075 148.919H359.106V154.053H410.075V148.919Z" fill="#9C77E9"/>
</g>
<defs>
<clipPath id="clip0_100_7">
<rect width="510" height="480" fill="white"/>
</clipPath>
</defs>
</svg>
