<svg width="35" height="35" viewBox="0 0 35 35" fill="none" xmlns="http://www.w3.org/2000/svg">
<path d="M24.7917 8.83757C23.7803 8.83824 22.8004 9.18931 22.0187 9.83104C21.2369 10.4728 20.7017 11.3655 20.504 12.3574C20.3063 13.3493 20.4584 14.379 20.9344 15.2714C21.4103 16.1638 22.1808 16.8638 23.1146 17.2521C22.8926 17.7844 22.5178 18.2388 22.0376 18.5581C21.5574 18.8773 20.9934 19.0471 20.4167 19.0459H14.5834C13.5553 19.0502 12.5475 19.3324 11.6667 19.8626V11.4917C12.6397 11.1477 13.4598 10.4708 13.982 9.58062C14.5042 8.69043 14.6949 7.6443 14.5204 6.62712C14.3459 5.60994 13.8174 4.6872 13.0283 4.022C12.2392 3.35679 11.2404 2.99194 10.2084 2.99194C9.17634 2.99194 8.17752 3.35679 7.38846 4.022C6.5994 4.6872 6.07091 5.60994 5.89639 6.62712C5.72187 7.6443 5.91256 8.69043 6.43475 9.58062C6.95695 10.4708 7.77703 11.1477 8.75005 11.4917V23.6834C7.78899 24.029 6.97914 24.7 6.46083 25.58C5.94253 26.4601 5.74844 27.4937 5.9122 28.5018C6.07597 29.5099 6.58727 30.4289 7.35748 31.0996C8.1277 31.7704 9.1083 32.1505 10.1293 32.1741C11.1504 32.1977 12.1475 31.8634 12.948 31.229C13.7484 30.5947 14.3017 29.7003 14.5119 28.7009C14.7221 27.7014 14.5761 26.6599 14.0991 25.7568C13.622 24.8538 12.8441 24.146 11.9 23.7563C12.1211 23.2264 12.4936 22.7735 12.971 22.4544C13.4483 22.1353 14.0092 21.9642 14.5834 21.9626H20.4167C21.7508 21.9623 23.0446 21.5047 24.0822 20.6661C25.1198 19.8275 25.8386 18.6586 26.1188 17.3542C27.0938 17.0229 27.9207 16.3584 28.454 15.4774C28.9872 14.5965 29.1927 13.5557 29.0341 12.5382C28.8756 11.5208 28.3632 10.5918 27.5872 9.9149C26.8112 9.23799 25.8213 8.8565 24.7917 8.83757ZM10.2084 5.9209C10.4968 5.9209 10.7788 6.00643 11.0186 6.16667C11.2584 6.32692 11.4453 6.55468 11.5557 6.82115C11.6661 7.08763 11.695 7.38085 11.6387 7.66374C11.5824 7.94663 11.4435 8.20648 11.2396 8.41043C11.0356 8.61438 10.7758 8.75327 10.4929 8.80955C10.21 8.86582 9.91678 8.83694 9.6503 8.72656C9.38383 8.61618 9.15607 8.42926 8.99582 8.18944C8.83558 7.94962 8.75005 7.66766 8.75005 7.37923C8.75005 6.99246 8.9037 6.62153 9.17719 6.34804C9.45068 6.07455 9.82161 5.9209 10.2084 5.9209ZM10.2084 29.2542C9.91995 29.2542 9.638 29.1687 9.39818 29.0085C9.15835 28.8482 8.97144 28.6205 8.86106 28.354C8.75068 28.0875 8.7218 27.7943 8.77807 27.5114C8.83434 27.2285 8.97323 26.9687 9.17719 26.7647C9.38114 26.5608 9.64099 26.4219 9.92388 26.3656C10.2068 26.3093 10.5 26.3382 10.7665 26.4486C11.0329 26.559 11.2607 26.7459 11.4209 26.9857C11.5812 27.2255 11.6667 27.5075 11.6667 27.7959C11.6667 28.1827 11.5131 28.5536 11.2396 28.8271C10.9661 29.1006 10.5952 29.2542 10.2084 29.2542ZM24.7917 14.6709C24.5033 14.6709 24.2213 14.5854 23.9815 14.4251C23.7417 14.2649 23.5548 14.0371 23.4444 13.7706C23.334 13.5042 23.3051 13.2109 23.3614 12.9281C23.4177 12.6452 23.5566 12.3853 23.7605 12.1814C23.9645 11.9774 24.2243 11.8385 24.5072 11.7823C24.7901 11.726 25.0833 11.7549 25.3498 11.8652C25.6163 11.9756 25.844 12.1625 26.0043 12.4024C26.1645 12.6422 26.2501 12.9241 26.2501 13.2126C26.2501 13.5993 26.0964 13.9703 25.8229 14.2438C25.5494 14.5173 25.1785 14.6709 24.7917 14.6709Z" fill="white"/>
</svg>
