<svg width="35" height="35" viewBox="0 0 35 35" fill="none" xmlns="http://www.w3.org/2000/svg">
<g clip-path="url(#clip0_23_101)">
<path d="M19.6525 5.29233C19.9354 5.34217 20.2058 5.44727 20.4482 5.60163C20.6905 5.75599 20.9001 5.95658 21.0649 6.19195C21.2297 6.42732 21.3466 6.69286 21.4087 6.97339C21.4709 7.25392 21.4772 7.54395 21.4272 7.82692L17.882 27.933C17.8321 28.2159 17.727 28.4863 17.5726 28.7286C17.4183 28.9709 17.2177 29.1805 16.9823 29.3453C16.747 29.5101 16.4814 29.6269 16.2009 29.6891C15.9204 29.7513 15.6304 29.7576 15.3475 29.7078C15.0645 29.6579 14.7941 29.5527 14.5518 29.3984C14.3095 29.244 14.0999 29.0434 13.9351 28.808C13.7703 28.5727 13.6535 28.3072 13.5913 28.0266C13.5291 27.7461 13.5228 27.4561 13.5727 27.1732L17.1179 7.06713C17.1677 6.78414 17.2728 6.51375 17.4272 6.2714C17.5815 6.02904 17.7821 5.81947 18.0175 5.65466C18.2529 5.48984 18.5184 5.37302 18.7989 5.31085C19.0795 5.24868 19.3695 5.24239 19.6525 5.29233ZM11.0264 9.7665C11.4361 10.1767 11.6662 10.7326 11.6662 11.3123C11.6662 11.892 11.4361 12.448 11.0264 12.8582L6.38599 17.5L11.0264 22.1405C11.4366 22.5508 11.6669 23.1073 11.6668 23.6875C11.6667 24.2677 11.436 24.8241 11.0257 25.2343C10.6153 25.6445 10.0588 25.8748 9.4786 25.8747C8.89839 25.8746 8.342 25.644 7.93183 25.2336L1.74558 19.0459C1.33593 18.6357 1.10583 18.0797 1.10583 17.5C1.10583 16.9204 1.33593 16.3644 1.74558 15.9542L7.93183 9.7665C8.13497 9.56322 8.37618 9.40197 8.64167 9.29195C8.90717 9.18193 9.19173 9.1253 9.47912 9.1253C9.7665 9.1253 10.0511 9.18193 10.3166 9.29195C10.5821 9.40197 10.8233 9.56322 11.0264 9.7665ZM27.0681 9.7665L33.2543 15.9528C33.6644 16.363 33.8948 16.9193 33.8948 17.4993C33.8948 18.0794 33.6644 18.6357 33.2543 19.0459L27.0681 25.2336C26.865 25.4368 26.6238 25.598 26.3585 25.708C26.0931 25.818 25.8086 25.8746 25.5213 25.8747C25.234 25.8748 24.9495 25.8183 24.6841 25.7084C24.4186 25.5985 24.1774 25.4374 23.9742 25.2343C23.771 25.0312 23.6098 24.7901 23.4998 24.5247C23.3898 24.2593 23.3332 23.9748 23.3331 23.6875C23.333 23.4002 23.3896 23.1158 23.4994 22.8503C23.6093 22.5849 23.7704 22.3437 23.9735 22.1405L28.6139 17.5L23.975 12.8596C23.5648 12.4493 23.3344 11.8928 23.3346 11.3125C23.3347 10.7323 23.5653 10.1759 23.9757 9.76577C24.386 9.3556 24.9426 9.12524 25.5228 9.12538C26.103 9.12551 26.6579 9.35613 27.0681 9.7665Z" fill="white"/>
</g>
<defs>
<clipPath id="clip0_23_101">
<rect width="35" height="35" fill="white"/>
</clipPath>
</defs>
</svg>
