<svg width="30" height="30" viewBox="0 0 30 30" fill="none" xmlns="http://www.w3.org/2000/svg">
<path d="M23.75 3.75C24.413 3.75 25.0489 4.01339 25.5178 4.48223C25.9866 4.95107 26.25 5.58696 26.25 6.25V23.75C26.25 24.413 25.9866 25.0489 25.5178 25.5178C25.0489 25.9866 24.413 26.25 23.75 26.25H6.25C5.58696 26.25 4.95107 25.9866 4.48223 25.5178C4.01339 25.0489 3.75 24.413 3.75 23.75V6.25C3.75 5.58696 4.01339 4.95107 4.48223 4.48223C4.95107 4.01339 5.58696 3.75 6.25 3.75H23.75ZM23.125 23.125V16.5C23.125 15.4192 22.6957 14.3828 21.9315 13.6185C21.1672 12.8543 20.1308 12.425 19.05 12.425C17.9875 12.425 16.75 13.075 16.15 14.05V12.6625H12.6625V23.125H16.15V16.9625C16.15 16 16.925 15.2125 17.8875 15.2125C18.3516 15.2125 18.7967 15.3969 19.1249 15.7251C19.4531 16.0533 19.6375 16.4984 19.6375 16.9625V23.125H23.125ZM8.6 10.7C9.15695 10.7 9.6911 10.4788 10.0849 10.0849C10.4788 9.6911 10.7 9.15695 10.7 8.6C10.7 7.4375 9.7625 6.4875 8.6 6.4875C8.03973 6.4875 7.50241 6.71007 7.10624 7.10624C6.71007 7.50241 6.4875 8.03973 6.4875 8.6C6.4875 9.7625 7.4375 10.7 8.6 10.7ZM10.3375 23.125V12.6625H6.875V23.125H10.3375Z" fill="white"/>
</svg>
