<svg width="36" height="36" viewBox="0 0 36 36" fill="none" xmlns="http://www.w3.org/2000/svg">
<path d="M29.925 31.5C26.7 31.5 23.5565 30.781 20.4945 29.343C17.4315 27.906 14.719 26.006 12.357 23.643C9.994 21.281 8.094 18.5685 6.657 15.5055C5.219 12.4435 4.5 9.3 4.5 6.075C4.5 5.625 4.65 5.25 4.95 4.95C5.25 4.65 5.625 4.5 6.075 4.5H12.15C12.5 4.5 12.8125 4.6125 13.0875 4.8375C13.3625 5.0625 13.525 5.35 13.575 5.7L14.55 10.95C14.6 11.3 14.594 11.6185 14.532 11.9055C14.469 12.1935 14.325 12.45 14.1 12.675L10.5 16.35C11.55 18.15 12.8625 19.8375 14.4375 21.4125C16.0125 22.9875 17.75 24.35 19.65 25.5L23.175 21.975C23.4 21.75 23.694 21.581 24.057 21.468C24.419 21.356 24.775 21.325 25.125 21.375L30.3 22.425C30.65 22.5 30.9375 22.6685 31.1625 22.9305C31.3875 23.1935 31.5 23.5 31.5 23.85V29.925C31.5 30.375 31.35 30.75 31.05 31.05C30.75 31.35 30.375 31.5 29.925 31.5Z" fill="white"/>
</svg>
