<svg width="24" height="24" viewBox="0 0 24 24" fill="none" xmlns="http://www.w3.org/2000/svg">
<g clip-path="url(#clip0_17_69)">
<path d="M21.433 4.86101L15.433 20.361C15.3737 20.5145 15.2773 20.651 15.1526 20.7584C15.0278 20.8657 14.8785 20.9407 14.7179 20.9765C14.5572 21.0123 14.3902 21.0079 14.2317 20.9637C14.0731 20.9195 13.9279 20.8368 13.809 20.723L10.427 17.488L8.35301 19.561C8.28303 19.6308 8.19394 19.6782 8.09701 19.6974C8.00007 19.7166 7.89962 19.7066 7.80836 19.6687C7.71709 19.6308 7.63909 19.5668 7.58421 19.4846C7.52933 19.4024 7.50003 19.3058 7.50001 19.207V14.688L2.30901 9.72301C2.18021 9.59979 2.08669 9.44438 2.03813 9.27288C1.98957 9.10137 1.98773 8.92001 2.03281 8.74755C2.07789 8.5751 2.16824 8.41783 2.29451 8.29202C2.42079 8.16622 2.57839 8.07645 2.75101 8.03201L20.251 3.53201C20.4289 3.48644 20.616 3.49074 20.7916 3.54444C20.9672 3.59815 21.1247 3.69919 21.2467 3.83647C21.3687 3.97376 21.4505 4.14199 21.4832 4.32272C21.5159 4.50345 21.4982 4.68969 21.432 4.86101H21.433ZM19 6.00101L8.03201 13.152L9.76701 14.812L19 6.00101Z" fill="white"/>
</g>
<defs>
<clipPath id="clip0_17_69">
<rect width="24" height="24" fill="white"/>
</clipPath>
</defs>
</svg>
